<svg xmlns="http://www.w3.org/2000/svg" viewBox="0 0 500 500"><defs><style>.cls-1{fill:#f0c421;}.cls-2{fill:#fff;}</style></defs><title>moonPhase</title><g id="Layer_3" data-name="Layer 3"><path class="cls-1" d="M391.28,162.16a53.62,53.62,0,1,0-53.61-53.61,53.77,53.77,0,0,0,53.61,53.61Z"/><path class="cls-2" d="M391.28,62.59a44.9,44.9,0,0,1,7.66.7,45.89,45.89,0,0,0,0,90.52,45.93,45.93,0,1,1-7.66-91.22Z"/></g><g id="Layer_2" data-name="Layer 2"><path class="cls-1" d="M280.34,10.51a53,53,0,0,0-24.46-8.92c-1.79-.18-3.62-.27-5.46-.27a53.62,53.62,0,1,0,0,107.23,51.84,51.84,0,0,0,5.46-.28,53.11,53.11,0,0,0,15.36-4,53.72,53.72,0,0,0,9.1-5A54.63,54.63,0,0,0,291.75,89a53.36,53.36,0,0,0,0-68.11,54.09,54.09,0,0,0-11.41-10.37Z"/><path class="cls-2" d="M250.42,100.89a46,46,0,1,1,0-91.91Z"/></g><g id="Layer_4" data-name="Layer 4"><path class="cls-1" d="M444.9,196.8a53.62,53.62,0,1,0,53.61,53.62A53.78,53.78,0,0,0,444.9,196.8Z"/></g><g id="Layer_9" data-name="Layer 9"><path class="cls-1" d="M109.55,154.5a46,46,0,1,1,46-45.95,46,46,0,0,1-45.95,46Z"/><path class="cls-1" d="M109.55,54.93a53.62,53.62,0,1,0,53.61,53.62,53.78,53.78,0,0,0-53.61-53.62Z"/><path class="cls-2" d="M109.55,62.59a45.08,45.08,0,0,0-7.66.7,45.89,45.89,0,0,1,0,90.52,45.93,45.93,0,1,0,7.66-91.22Z"/></g><g id="Layer_8" data-name="Layer 8"><path class="cls-1" d="M109.55,250.41A53.62,53.62,0,1,0,55.93,304a53.78,53.78,0,0,0,53.62-53.62Z"/><path class="cls-2" d="M10,250.41a46,46,0,1,1,46,46,46,46,0,0,1-45.95-46Z"/></g><g id="Layer_7" data-name="Layer 7"><path class="cls-1" d="M109.55,338.67a53.62,53.62,0,1,0,53.61,53.61,53.77,53.77,0,0,0-53.61-53.61Z"/><path class="cls-1" d="M109.55,438.24a46,46,0,1,1,46-46,46,46,0,0,1-45.95,46Z"/><path class="cls-2" d="M78.91,392.28A46.1,46.1,0,0,1,117.21,347a45.93,45.93,0,1,0-7.66,91.22,45.08,45.08,0,0,0,7.66-.7,46.09,46.09,0,0,1-38.3-45.26Z"/></g><g id="Layer_6" data-name="Layer 6"><path class="cls-1" d="M250.42,499.51a53.62,53.62,0,0,0,0-107.23h0a53.62,53.62,0,1,0,0,107.23"/><path class="cls-2" d="M250.42,491.85V399.94a46,46,0,0,1,0,91.91Z"/></g><g id="Layer_5" data-name="Layer 5"><path class="cls-1" d="M391.28,338.67a53.62,53.62,0,1,0,53.62,53.61,53.77,53.77,0,0,0-53.62-53.61Z"/><path class="cls-2" d="M391.28,438.24a44.87,44.87,0,0,1-7.65-.7,45.89,45.89,0,0,0,0-90.52,45.93,45.93,0,1,1,7.65,91.22Z"/></g></svg>