<svg xmlns="http://www.w3.org/2000/svg" viewBox="0 0 500 384.9"><defs><style>.cls-1{fill:#36a9e1;}.cls-2{fill:#fff;}.cls-3{fill:#c6c6c6;fill-rule:evenodd;}</style></defs><title>cloud</title><g id="Layer_2" data-name="Layer 2"><path class="cls-1" d="M123.67,284.67a19.73,19.73,0,0,1-38.63-8c2.22-10.73,26.55-30.9,26.55-30.9S125.87,274.05,123.67,284.67Z"/><path class="cls-2" d="M101.4,294.9a14.56,14.56,0,0,1-11.28-17.19,1.73,1.73,0,0,1,3.39.7,11.08,11.08,0,0,0,8.6,13.1,1.73,1.73,0,0,1-.71,3.39Z"/><path class="cls-1" d="M193.67,284.67a19.73,19.73,0,0,1-38.63-8c2.22-10.73,26.55-30.9,26.55-30.9S195.87,274.05,193.67,284.67Z"/><path class="cls-2" d="M171.4,294.9a14.56,14.56,0,0,1-11.28-17.19,1.73,1.73,0,0,1,3.39.7,11.08,11.08,0,0,0,8.6,13.1,1.73,1.73,0,0,1-.71,3.39Z"/><path class="cls-1" d="M273.67,284.67a19.73,19.73,0,0,1-38.63-8c2.22-10.73,26.55-30.9,26.55-30.9S275.87,274.05,273.67,284.67Z"/><path class="cls-2" d="M251.4,294.9a14.56,14.56,0,0,1-11.28-17.19,1.73,1.73,0,0,1,3.39.7,11.08,11.08,0,0,0,8.6,13.1,1.73,1.73,0,0,1-.71,3.39Z"/><path class="cls-1" d="M363.67,284.67a19.73,19.73,0,0,1-38.63-8c2.22-10.73,26.55-30.9,26.55-30.9S365.87,274.05,363.67,284.67Z"/><path class="cls-2" d="M341.4,294.9a14.56,14.56,0,0,1-11.28-17.19,1.73,1.73,0,0,1,3.39.7,11.08,11.08,0,0,0,8.6,13.1,1.73,1.73,0,0,1-.71,3.39Z"/><path class="cls-1" d="M323.67,234.67a19.73,19.73,0,0,1-38.63-8c2.22-10.73,26.55-30.9,26.55-30.9S325.87,224.05,323.67,234.67Z"/><path class="cls-2" d="M301.4,244.9a14.56,14.56,0,0,1-11.28-17.19,1.73,1.73,0,0,1,3.39.7,11.08,11.08,0,0,0,8.6,13.1,1.73,1.73,0,0,1-.71,3.39Z"/><path class="cls-1" d="M173.67,234.67a19.73,19.73,0,0,1-38.63-8c2.22-10.73,26.55-30.9,26.55-30.9S175.87,224.05,173.67,234.67Z"/><path class="cls-2" d="M151.4,244.9a14.56,14.56,0,0,1-11.28-17.19,1.73,1.73,0,0,1,3.39.7,11.08,11.08,0,0,0,8.6,13.1,1.73,1.73,0,0,1-.71,3.39Z"/></g><g id="Layer_1" data-name="Layer 1"><g id="Page-1"><g id="icon-132-cloud"><path id="cloud" class="cls-3" d="M437.1,136.1a90.38,90.38,0,0,1-34,174.1H95.87A90.36,90.36,0,0,1,60,136.93h0q-.21-3.69-.21-7.44A126.51,126.51,0,0,1,296.35,67.2,99.46,99.46,0,0,1,437.1,136.1Z"/></g></g></g></svg>